<?xml version="1.0" encoding="UTF-8"?>
<!DOCTYPE svg PUBLIC "-//W3C//DTD SVG 1.1//EN" "http://www.w3.org/Graphics/SVG/1.1/DTD/svg11.dtd">
<!-- Creator: CorelDRAW 2018 (64-Bit Evaluation Version) -->
<svg xmlns="http://www.w3.org/2000/svg" xml:space="preserve" width="87.521mm" height="35.2438mm" version="1.1" style="shape-rendering:geometricPrecision; text-rendering:geometricPrecision; image-rendering:optimizeQuality; fill-rule:evenodd; clip-rule:evenodd"
viewBox="0 0 2992.35 1204.99"
 xmlns:xlink="http://www.w3.org/1999/xlink">
 <defs>
  <style type="text/css">
   <![CDATA[
    .fil0 {fill:#DD0FFF}
    .fil1 {fill:#FEFEFE;fill-rule:nonzero}
   ]]>
  </style>
 </defs>
 <g id="Layer_x0020_1">
  <metadata id="CorelCorpID_0Corel-Layer"/>
  <path class="fil0" d="M1647.89 217.5l54.67 0 63.25 0 97.4 102.35 0 404.3 -73.38 0 73.4 77.13 66.44 239.34 0 -298.92 -19.35 -43.39 19.35 0 54.66 0 18.15 0 -72.82 -76.52 0 -404.3 114.5 0 97.4 102.35 0 241.31 54.26 0 97.4 102.35 -21.83 34.81 4.5 0 54.66 0 21.7 0 -72.82 -76.52 -0.06 -362.37 -19.75 -41.93 19.82 0 54.59 0 59.9 0 97.4 102.35 0 241.31 54.2 0 97.4 102.35 -21.83 34.81 29.94 0 92.36 0 -72.82 -76.52 -4.67 -118.84 -108.31 -285.46 66.87 0 45.97 0 77.05 80.97 28.39 -80.97 119.03 0 97.4 102.35 -114.5 284.85 4.67 119.45 -27.48 0 15.71 12.76 97.4 102.35 0 138.55 -24.91 20.24 24.91 26.18 0 139.29 19.82 41.46 -134.31 0 -48.76 -51.24 0 51.24 -111.09 0 -97.4 -102.35 0 -71.62 -108.6 0 0 10.98 40.91 0 97.4 102.35 -19.83 60.65 -232.98 0 -97.4 -102.35 0 -46.57 -21.96 17.83 -114.83 0 0 131.09 -112.03 0 -73.11 -76.82 21.33 76.82 -121.21 0 -48.97 -51.46 -43.64 0 -10.29 51.46 -118.92 0 -97.4 -102.35 8.24 -28.74 -109.14 0 0 131.09 -112.03 0 -97.4 -102.35 0 -360.91 -19.82 -43.39 19.82 0 54.66 0 63.21 0 -72.82 -76.52 -44.24 -61.26 162.42 0 0 -10.36 -17.94 0 -48.1 -38.59 -97.4 -102.35 0 -149.81 -19.82 -41.93 19.82 0 54.65 0 202.83 0 97.4 102.35 18.01 60.65 -147.49 0 0 7.3 1.88 0 48.21 38.59 97.4 102.35 0 156.83 -48.45 38.59 -64.75 0 14.89 11.9 97.4 102.35 0 49.78 41.98 -146.48 -24.28 -42.78 36.33 0 41.55 0 29.4 0 -73.4 -77.13 0 -362.37 -19.82 -41.93 19.82 0zm-1647.89 -217.5l206.47 430.5 -206.46 -154.84 206.46 826.97 97.4 102.35 896.16 0 0 -896.16 -97.4 -102.35 -826.97 -206.46 287.42 254.28 -563.07 -254.3zm2275.9 811.56l0 -69.84 -13.36 -29.26 -7.34 11.7 -66.03 0 14.89 11.9 71.84 75.49zm320.5 146.64l0 -96.87 -108.6 0 0 6.68 22.77 0 85.83 90.19zm0 -169.11l0 -47.37 -6.88 -17.56 -54.91 0 61.79 64.93zm97.55 -498.61l27.95 29.37 -27.95 -29.38 0 0z"/>
  <path class="fil1" d="M1647.89 217.5l54.67 0 63.25 0 0 404.3 -117.91 0 0 -362.37 -19.82 -41.93 19.82 0zm-1647.89 -217.5l206.47 430.5 -206.46 -154.84 206.46 826.97 896.16 0 0 -896.16 -826.97 -206.46 224.52 207.16 -500.18 -207.17zm775.92 783.62l85.28 -85.29 85.29 85.29 -85.29 85.28 -85.28 -85.28zm-344.33 -0.13l85.29 -85.29 85.29 85.29 -85.29 85.29 -85.29 -85.29zm1020.02 -395.68l48.21 38.59 0 156.83 -48.45 38.59 -181.78 0 -44.24 -61.26 162.42 0 0 -112.71 -115.34 0 -48.1 -38.59 0 -149.81 -19.82 -41.93 19.82 0 54.65 0 202.83 0 18.01 60.65 -147.49 0 0 109.65 99.28 0zm478.06 310.52l54.66 0 172.52 0 47.21 37.74 0 196.88 -47.52 38.6 -114.83 0 0 131.09 -112.03 0 0 -360.91 -19.35 -43.39 19.35 0zm112.03 213.18l49.17 0 0 -152.54 -49.17 0 0 152.54zm-817.19 -213.18l54.66 0 172.52 0 47.21 37.74 0 196.88 -47.52 38.6 -114.83 0 0 131.09 -112.03 0 0 -360.91 -19.82 -43.39 19.82 0zm112.03 213.18l49.18 0 0 -152.54 -49.18 0 0 152.54zm410.98 139.67l-83.46 0 -10.29 51.46 -118.92 0 103.43 -360.91 -24.28 -42.78 36.33 0 41.55 0 73.94 0 112.07 403.7 -121.21 0 -9.15 -51.46zm-11.43 -61.87l-29.73 -155.6 -29.73 155.6 59.46 0zm654.29 -60.65l0 113.33 138.31 0 -19.83 60.65 -232.98 0 0 -360.91 -19.81 -43.39 19.81 0 54.66 0 179.47 0 19.82 60.64 -139.45 0 0 109.04 120.18 0 0 60.64 -120.18 0zm500.17 173.98l-134.31 0 0 -173.98 -48.76 0 0 173.98 -111.09 0 0 -360.91 -17 -43.39 17 0 54.66 0 172.16 0 47.52 38.59 0 138.55 -28.53 23.17 28.53 23.24 0 139.29 19.82 41.46zm-134.31 -343.66l-48.76 0 0 109.65 48.76 0 0 -109.65zm138.69 -541.47l-114.5 284.85 4.67 119.45 -114.51 0 -4.67 -118.84 -108.31 -285.46 66.87 0 45.97 0 50.45 156.82 54.99 -156.82 119.03 0zm-501 343.66l151.61 0 -38.03 60.64 -228.07 0 -0.06 -362.37 -19.75 -41.93 19.82 0 54.59 0 59.9 0 0 343.66zm-349.78 0l151.66 0 -38.03 60.64 -228.13 0 0 -404.3 114.5 0 0 343.66z"/>
 </g>
</svg>
