<?xml version="1.0" encoding="UTF-8"?>
<!DOCTYPE svg PUBLIC "-//W3C//DTD SVG 1.1//EN" "http://www.w3.org/Graphics/SVG/1.1/DTD/svg11.dtd">
<!-- Creator: CorelDRAW 2018 (64-Bit Evaluation Version) -->
<svg xmlns="http://www.w3.org/2000/svg" xml:space="preserve" width="84.6721mm" height="32.2501mm" version="1.1" style="shape-rendering:geometricPrecision; text-rendering:geometricPrecision; image-rendering:optimizeQuality; fill-rule:evenodd; clip-rule:evenodd"
viewBox="0 0 2814.18 1071.87"
 xmlns:xlink="http://www.w3.org/1999/xlink">
 <defs>
  <style type="text/css">
   <![CDATA[
    .fil0 {fill:white;fill-rule:nonzero}
   ]]>
  </style>
 </defs>
 <g id="Layer_x0020_1">
  <metadata id="CorelCorpID_0Corel-Layer"/>
  <path class="fil0" d="M1601.91 211.44l53.14 0 61.48 0 0 393.02 -114.62 0 0 -352.26 -19.26 -40.76 19.26 0zm-1601.91 -211.44l200.71 418.49 -200.7 -150.52 200.7 803.9 871.16 0 0 -871.16 -803.9 -200.7 218.26 201.38 -486.22 -201.39zm754.28 761.76l82.9 -82.91 82.91 82.91 -82.91 82.9 -82.9 -82.9zm-334.72 -0.13l82.91 -82.91 82.91 82.91 -82.91 82.91 -82.91 -82.91zm991.56 -384.64l46.86 37.51 0 152.45 -47.1 37.51 -176.71 0 -43 -59.55 157.89 0 0 -109.57 -112.12 0 -46.75 -37.51 0 -145.63 -19.26 -40.76 19.26 0 53.13 0 197.17 0 17.51 58.96 -143.38 0 0 106.59 96.51 0zm464.72 301.86l53.14 0 167.71 0 45.89 36.68 0 191.38 -46.2 37.52 -111.63 0 0 127.44 -108.91 0 0 -350.84 -18.82 -42.18 18.82 0zm108.91 207.23l47.8 0 0 -148.28 -47.8 0 0 148.28zm-794.39 -207.23l53.14 0 167.7 0 45.89 36.68 0 191.38 -46.2 37.52 -111.63 0 0 127.44 -108.9 0 0 -350.84 -19.26 -42.18 19.26 0zm108.9 207.23l47.8 0 0 -148.28 -47.8 0 0 148.28zm399.52 135.77l-81.14 0 -10 50.02 -115.61 0 100.55 -350.84 -23.6 -41.59 35.32 0 40.39 0 71.87 0 108.94 392.43 -117.83 0 -8.89 -50.02zm-11.11 -60.14l-28.9 -151.26 -28.9 151.26 57.8 0zm636.04 -58.96l0 110.17 134.45 0 -19.27 58.95 -226.48 0 0 -350.84 -19.26 -42.18 19.26 0 53.14 0 174.46 0 19.26 58.95 -135.56 0 0 106 116.83 0 0 58.95 -116.83 0zm486.22 169.13l-130.57 0 0 -169.13 -47.4 0 0 169.13 -107.99 0 0 -350.84 -16.53 -42.18 16.53 0 53.14 0 167.36 0 46.2 37.51 0 134.68 -27.73 22.53 27.73 22.59 0 135.41 19.26 40.3zm-130.57 -334.07l-47.4 0 0 106.59 47.4 0 0 -106.59zm134.82 -526.36l-111.3 276.9 4.54 116.12 -111.31 0 -4.54 -115.53 -105.29 -277.5 65.01 0 44.69 0 49.05 152.45 53.46 -152.45 115.71 0zm-487.02 334.07l147.38 0 -36.97 58.95 -221.71 0 -0.06 -352.26 -19.2 -40.76 19.26 0 53.07 0 58.23 0 0 334.07zm-340.02 0l147.43 0 -36.97 58.95 -221.77 0 0 -393.02 111.3 0 0 334.07z"/>
 </g>
</svg>
