<?xml version="1.0" encoding="UTF-8"?>
<!-- (c) Carrd Inc. All rights reserved. All logos and trademarks are property of their respective owners. -->
<svg xmlns="http://www.w3.org/2000/svg" version="1.1" xmlns:xlink="http://www.w3.org/1999/xlink" viewBox="0 0 40 40" display="none" width="0" height="0">
	<symbol id="apple-appstore" viewBox="0 0 40 40"><path d="M19.9,4.9L21,3c0.7-1.2,2.2-1.6,3.3-0.9c1.2,0.7,1.6,2.2,0.9,3.3L14.8,23.5h7.6c2.5,0,3.8,2.9,2.8,4.9H2.9 c-1.4,0-2.4-1.1-2.4-2.4s1.1-2.4,2.4-2.4h6.2l8-13.8l-2.5-4.3c-0.7-1.2-0.3-2.7,0.9-3.3c1.2-0.7,2.7-0.3,3.3,0.9L19.9,4.9L19.9,4.9z M10.5,30.9L8.2,35c-0.7,1.2-2.2,1.6-3.3,0.9s-1.6-2.2-0.9-3.3l1.7-3C7.7,28.9,9.3,29.4,10.5,30.9L10.5,30.9z M30.7,23.6h6.3 c1.4,0,2.4,1.1,2.4,2.4c0,1.4-1.1,2.4-2.4,2.4h-3.5l2.4,4.1c0.7,1.2,0.3,2.7-0.9,3.3c-1.2,0.7-2.7,0.3-3.3-0.9c-4-6.9-7-12.1-9-15.6 c-2-3.5-0.6-7.1,0.9-8.3C25.1,13.9,27.5,18,30.7,23.6L30.7,23.6z"/></symbol>
	<symbol id="google-play" viewBox="0 0 40 40"><path d="M36.9,22l-5.5,3.1l-5-4.9l5.1-5l5.5,3C38.8,19.3,38.8,21,36.9,22z M24.7,18.6L9,3.3c0.5-0.1,1.1,0.1,1.7,0.4 L29.3,14L24.7,18.6z M7.4,35.4c-0.1-0.2-0.1-0.5-0.1-0.8v-29c0-0.2,0-0.5,0.1-0.7L23,20.2L7.4,35.4z M24.7,21.8l4.6,4.5L10.7,36.6 C10.1,36.9,9.6,37,9.1,37L24.7,21.8z"/></symbol>
	<symbol id="cloud" viewBox="0 0 40 40"><path d="M34.2,29.3L34.2,29.3l-28.8,0v0c0,0,0,0,0,0c-3,0-5.4-2.4-5.4-5.4c0-3,2.4-5.4,5.4-5.4c0-0.1,0-0.2,0-0.3 c0-3.2,2.6-5.9,5.9-5.9c1.2,0,2.3,0.4,3.3,1c1.7-3.3,5.2-5.6,9.2-5.6c5.5,0,10,4.3,10.4,9.7c3.3,0,5.9,2.7,5.9,5.9 C40,26.6,37.4,29.2,34.2,29.3z"/></symbol>
</svg>
